HIERARCHY
ROOT SpineBase
{
  OFFSET 0.000000 0.000000 0.000000
  CHANNELS 6 Xposition Yposition Zposition Zrotation Xrotation Yrotation
  JOINT SpineMid
  {
    OFFSET -0.000000 32.287280 0.000000
    CHANNELS 3 Zrotation Xrotation Yrotation
    JOINT SpineShoulder
    {
      OFFSET -0.083548 23.894672 -0.722559
      CHANNELS 3 Zrotation Xrotation Yrotation
      JOINT Neck
      {
        OFFSET -0.082012 7.925431 -0.608785
        CHANNELS 3 Zrotation Xrotation Yrotation
        JOINT Head
        {
          OFFSET -1.548708 11.933062 3.495763
          CHANNELS 3 Zrotation Xrotation Yrotation
          End Site
          {
            OFFSET 0 0 0
          }
        }
      }
      JOINT ShoulderLeft
      {
        OFFSET -11.480644 -6.479246 -10.989459
        CHANNELS 3 Zrotation Xrotation Yrotation
        JOINT ElbowLeft
        {
          OFFSET -5.113769 -26.070495 1.419365
          CHANNELS 3 Zrotation Xrotation Yrotation
          JOINT WristLeft
          {
            OFFSET -5.840598 -24.686923 6.388831
            CHANNELS 3 Zrotation Xrotation Yrotation
            JOINT HandLeft
            {
              OFFSET -0.216032 -5.381734 2.765060
              CHANNELS 3 Zrotation Xrotation Yrotation
              JOINT HandTipLeft
              {
                OFFSET -0.114695 -6.743144 0.536603
                CHANNELS 3 Zrotation Xrotation Yrotation
                End Site
                {
                  OFFSET 0 0 0
                }
              }
              JOINT ThumbLeft
              {
                OFFSET 3.005985 0.712398 -0.498612
                CHANNELS 3 Zrotation Xrotation Yrotation
                End Site
                {
                  OFFSET 0 0 0
                }
              }
            }
          }
        }
      }
      JOINT ShoulderRight
      {
        OFFSET 13.462183 -3.954035 -0.399567
        CHANNELS 3 Zrotation Xrotation Yrotation
        JOINT ElbowRight
        {
          OFFSET 10.663032 -20.530481 7.282041
          CHANNELS 3 Zrotation Xrotation Yrotation
          JOINT WristRight
          {
            OFFSET -24.744107 -6.646134 -9.827169
            CHANNELS 3 Zrotation Xrotation Yrotation
            JOINT HandRight
            {
              OFFSET -6.272456 -5.499352 -5.692772
              CHANNELS 3 Zrotation Xrotation Yrotation
              JOINT HandTipRight
              {
                OFFSET -5.684586 -6.469924 3.090895
                CHANNELS 3 Zrotation Xrotation Yrotation
                End Site
                {
                  OFFSET 0 0 0
                }
              }
              JOINT ThumbRight
              {
                OFFSET -2.717466 7.182580 -1.557934
                CHANNELS 3 Zrotation Xrotation Yrotation
                End Site
                {
                  OFFSET 0 0 0
                }
              }
            }
          }
        }
      }
    }
  }
  JOINT HipLeft
  {
    OFFSET -6.634765 2.047696 -5.471476
    CHANNELS 3 Zrotation Xrotation Yrotation
    JOINT KneeLeft
    {
      OFFSET 2.374079 -37.162020 -3.033530
      CHANNELS 3 Zrotation Xrotation Yrotation
      JOINT AnkleLeft
      {
        OFFSET 0.196332 -35.044915 -4.575801
        CHANNELS 3 Zrotation Xrotation Yrotation
        JOINT FootLeft
        {
          OFFSET 3.845417 -6.601438 -1.229853
          CHANNELS 3 Zrotation Xrotation Yrotation
          End Site
          {
            OFFSET 0 0 0
          }
        }
      }
    }
  }
  JOINT HipRight
  {
    OFFSET 5.654304 0.765998 -0.671279
    CHANNELS 3 Zrotation Xrotation Yrotation
    JOINT KneeRight
    {
      OFFSET 11.197116 -39.856068 7.037960
      CHANNELS 3 Zrotation Xrotation Yrotation
      JOINT AnkleRight
      {
        OFFSET 3.480764 -32.395841 2.944612
        CHANNELS 3 Zrotation Xrotation Yrotation
        JOINT FootRight
        {
          OFFSET -6.842014 6.123191 -3.083292
          CHANNELS 3 Zrotation Xrotation Yrotation
          End Site
          {
            OFFSET 0 0 0
          }
        }
      }
    }
  }
}
MOTION
Frames: 7
Frame Time: 0.033333
37.550676 76.679939 229.387874 1.457567 -0.357822 -10.170078 -0.076967 -0.194208 10.215971 -0.036814 0.357892 0.056012 -4.151716 1.965217 1.019503 0.000000 0.000000 0.000000 -12.140826 -24.249587 1.807666 -51.435541 -83.821868 -34.181979 4.722589 -8.939725 -27.896139 -26.757423 -56.739272 66.943658 0.000000 0.000000 0.000000 0.000000 0.000000 0.000000 -36.400739 -8.827993 -23.281574 16.079652 7.096220 56.412755 -38.554943 3.712129 28.463300 -26.281691 8.569125 -59.888551 0.000000 0.000000 0.000000 0.000000 0.000000 0.000000 -3.990069 0.194519 10.415632 2.259267 2.273487 -0.179390 -8.086970 48.978813 34.763063 0.000000 0.000000 0.000000 -3.900414 -1.730438 9.277489 3.672235 4.403033 1.195746 -46.102945 -44.584750 -95.389853 0.000000 0.000000 0.000000
38.084886 76.797146 229.761746 1.239897 -0.441811 -9.268102 0.007030 -0.197386 9.309616 -0.044423 0.348782 0.049067 -5.837217 1.600180 1.533758 0.000000 0.000000 0.000000 -12.597643 -22.847447 1.558161 -87.899841 -86.866768 -71.988247 -5.896512 -3.062918 -21.733111 -12.298629 -52.544255 25.545110 0.000000 0.000000 0.000000 0.000000 0.000000 0.000000 -17.298144 -4.878742 -9.723345 -5.381619 -3.188451 45.343267 -36.916831 0.357287 28.651854 -22.520652 18.899311 -62.190148 0.000000 0.000000 0.000000 0.000000 0.000000 0.000000 -5.167227 0.563870 9.671477 3.886631 2.021737 -0.335190 -12.721906 51.016652 39.401705 0.000000 0.000000 0.000000 -4.205315 -1.447517 8.349017 3.984791 4.310688 1.231524 -44.563982 -45.915631 -94.105202 0.000000 0.000000 0.000000
38.649431 76.913081 230.189322 0.974481 -0.565753 -8.609937 0.000898 -0.204816 8.642494 -0.083119 0.338605 0.033836 -7.585437 1.035352 2.090336 0.000000 0.000000 0.000000 -12.686626 -18.599995 1.130637 -154.924358 -79.710674 -136.666258 -4.097364 8.286660 -21.596540 -12.842350 -60.812318 16.855922 0.000000 0.000000 0.000000 0.000000 0.000000 0.000000 -6.727155 -0.617789 -2.760589 -19.305406 -6.330949 36.497528 -33.756914 -0.456766 26.510636 -25.428354 19.334160 -61.096169 0.000000 0.000000 0.000000 0.000000 0.000000 0.000000 -6.259313 0.874262 9.172441 5.452818 2.019831 -0.468810 -15.871903 50.968014 41.747400 0.000000 0.000000 0.000000 -4.551421 -0.948305 7.716614 4.279523 3.997703 1.226954 -42.647940 -47.334377 -92.516562 0.000000 0.000000 0.000000
39.230312 77.066635 230.634012 0.543736 -0.676350 -8.323541 -0.073403 -0.208439 8.338433 -0.440764 0.872046 -0.006927 -8.119482 -0.336227 2.338299 0.000000 0.000000 0.000000 -10.971699 -11.801726 0.572508 -159.958060 -64.993343 -134.744152 16.534342 16.152255 -35.633162 -16.667387 -67.970401 18.282514 0.000000 0.000000 0.000000 0.000000 0.000000 0.000000 -1.779137 1.437976 0.139868 -25.760241 -6.997317 31.826605 -31.550096 -2.447756 25.549197 -29.886424 16.677225 -59.080176 0.000000 0.000000 0.000000 0.000000 0.000000 0.000000 -7.096722 1.029200 9.027946 6.870886 2.306855 -0.578411 -16.434902 48.691456 40.668428 0.000000 0.000000 0.000000 -4.656770 -0.338489 7.509928 4.386074 3.527918 1.171595 -40.967779 -48.357926 -91.243421 0.000000 0.000000 0.000000
39.723474 77.241088 231.031866 0.046101 -0.739250 -8.249902 -0.137344 -0.214973 8.244188 0.120577 0.932302 0.005926 -9.322149 -1.426638 2.470229 0.000000 0.000000 0.000000 -10.104467 -1.815533 -0.349557 -163.091745 -47.617356 -131.723990 32.031924 17.526738 -47.535045 -5.063104 -59.106301 2.825965 0.000000 0.000000 0.000000 0.000000 0.000000 0.000000 -1.013178 1.850718 0.624731 -27.000533 -6.990146 30.976403 -31.463726 -1.938889 25.372551 -31.339475 15.657031 -59.038145 0.000000 0.000000 0.000000 0.000000 0.000000 0.000000 -7.492327 1.021351 9.042000 7.759718 2.760951 -0.637957 -17.791113 48.120818 41.502076 0.000000 0.000000 0.000000 -4.622279 0.209731 7.521837 4.493123 3.062545 1.109908 -39.547861 -49.159429 -90.149679 0.000000 0.000000 0.000000
40.278530 77.435409 231.443319 -0.568534 -0.760184 -8.233778 -0.176439 -0.224400 8.203271 -0.103889 0.299097 -0.044357 -8.795587 -1.970900 2.503188 0.000000 0.000000 0.000000 -10.616094 10.341116 -1.333200 -162.624387 -27.951252 -128.122334 56.351630 24.156045 -62.283279 -7.629480 -58.688216 1.811550 0.000000 0.000000 0.000000 0.000000 0.000000 0.000000 -4.352636 1.082239 -1.524156 -20.874813 -7.122528 34.499150 -33.802760 0.246728 26.440842 -29.221342 19.976232 -60.616031 0.000000 0.000000 0.000000 0.000000 0.000000 0.000000 -7.790630 0.994571 9.112542 8.532050 3.070250 -0.679019 -18.471357 47.706968 41.966157 0.000000 0.000000 0.000000 -4.517048 0.798916 7.609640 4.618013 2.464934 1.027419 -38.434281 -49.645522 -89.360482 0.000000 0.000000 0.000000
40.708373 77.618737 231.769336 -1.345776 -0.702329 -8.382967 -0.214745 -0.220762 8.322411 -0.088917 0.300864 -0.078743 -7.552011 -3.511059 2.115113 0.000000 0.000000 0.000000 -12.946563 21.654205 -1.938505 -159.697277 -8.576794 -125.475309 74.476155 16.668315 -74.266970 -12.424426 -50.632009 3.339667 0.000000 0.000000 0.000000 0.000000 0.000000 0.000000 -4.833560 1.966921 -1.367603 -19.610230 -7.972385 34.122702 -33.152171 3.032997 24.988537 -34.981843 13.096319 -59.686351 0.000000 0.000000 0.000000 0.000000 0.000000 0.000000 -7.570740 0.761620 9.283331 8.851746 3.557030 -0.680801 -18.197848 47.381368 41.859408 0.000000 0.000000 0.000000 -4.089440 1.268698 7.860662 4.642258 1.937610 0.937219 -37.986076 -49.731395 -89.179172 0.000000 0.000000 0.000000
